<svg xmlns="http://www.w3.org/2000/svg" xmlns:xlink="http://www.w3.org/1999/xlink" width="500" zoomAndPan="magnify" viewBox="0 0 375 374.999991" height="500" preserveAspectRatio="xMidYMid meet" version="1.0"><path fill="#ffbd59" d="M 131.566406 215.511719 C 84.386719 215.511719 76.148438 162.453125 76.148438 162.453125 C 80.859375 151.507812 86.417969 155.210938 92.710938 145.246094 C 112.21875 114.289062 120.527344 101.324219 146.984375 101.695312 L 172.082031 69.488281 C 174.332031 71.734375 188.328125 105.53125 192.105469 114.703125 C 239.957031 151.492188 237.125 264.652344 233.148438 315.796875 C 235.617188 315.238281 238.070312 314.597656 240.488281 313.90625 C 249.289062 311.402344 254.757812 309.480469 261.722656 305.933594 C 266.046875 303.730469 270.304688 301.324219 274.203125 298.414062 C 273.972656 298.542969 277.140625 295.890625 277.808594 295.238281 C 278.507812 294.558594 281.753906 290.960938 280.996094 292 C 286.214844 284.8125 287.820312 279.257812 285.324219 270.667969 C 280.578125 254.386719 267.792969 240.070312 259.253906 225.589844 C 251.882812 213.085938 244.121094 199.554688 241.113281 185.1875 C 234.558594 153.835938 252.261719 129.019531 273.171875 107.480469 C 284.582031 95.726562 302.382812 113.777344 291.011719 125.480469 C 280.835938 135.96875 269.140625 148.105469 265.683594 162.824219 C 263.101562 173.839844 266.46875 184.863281 271.433594 194.996094 C 279.867188 212.210938 290.757812 228.015625 300.800781 244.289062 C 306.957031 254.269531 312.257812 266.53125 311.746094 278.59375 C 330.382812 253.195312 341.390625 221.851562 341.390625 187.941406 C 341.390625 103.195312 272.6875 34.484375 187.941406 34.484375 C 103.195312 34.488281 34.484375 103.195312 34.484375 187.941406 C 34.488281 242.214844 62.667969 289.910156 105.199219 317.1875 C 116.804688 260.296875 162.71875 215.511719 131.566406 215.511719 " fill-opacity="1" fill-rule="nonzero"/><path fill="#ffbd59" d="M 186.105469 341.363281 C 186.714844 341.371094 187.324219 341.390625 187.941406 341.390625 C 188.558594 341.390625 189.167969 341.371094 189.773438 341.363281 L 186.105469 341.363281 " fill-opacity="1" fill-rule="nonzero"/></svg>